<svg xmlns="http://www.w3.org/2000/svg" xmlns:xlink="http://www.w3.org/1999/xlink" width="48" zoomAndPan="magnify" viewBox="0 0 36 36.000001" height="48" preserveAspectRatio="xMidYMid meet" version="1.0"><defs><clipPath id="ecdf0aa3f8"><path d="M 4.171875 1.089844 L 12 1.089844 L 12 9 L 4.171875 9 Z M 4.171875 1.089844 " clip-rule="nonzero"/></clipPath><clipPath id="2881300c29"><path d="M 4.171875 9 L 16 9 L 16 29 L 4.171875 29 Z M 4.171875 9 " clip-rule="nonzero"/></clipPath><clipPath id="681f6ab47e"><path d="M 12 1.089844 L 26 1.089844 L 26 18 L 12 18 Z M 12 1.089844 " clip-rule="nonzero"/></clipPath><clipPath id="e9fb7e4789"><path d="M 17 19 L 31.902344 19 L 31.902344 33.925781 L 17 33.925781 Z M 17 19 " clip-rule="nonzero"/></clipPath></defs><g clip-path="url(#ecdf0aa3f8)"><path fill="#e1e1e1" d="M 11.445312 7.011719 L 11.445312 1.082031 L 11.152344 1.113281 C 11 1.128906 10.867188 1.164062 10.75 1.222656 C 10.703125 1.242188 10.671875 1.265625 10.648438 1.277344 C 10.566406 1.324219 10.476562 1.382812 10.402344 1.464844 L 4.574219 7.289062 C 4.484375 7.378906 4.425781 7.472656 4.398438 7.527344 C 4.378906 7.554688 4.367188 7.574219 4.34375 7.621094 C 4.277344 7.746094 4.238281 7.886719 4.222656 8.042969 L 4.191406 8.335938 L 10.121094 8.335938 C 10.851562 8.335938 11.445312 7.746094 11.445312 7.015625 Z M 11.445312 7.011719 " fill-opacity="1" fill-rule="nonzero"/></g><g clip-path="url(#2881300c29)"><path fill="#e1e1e1" d="M 15.710938 28.09375 L 5.644531 28.09375 C 4.859375 28.09375 4.214844 27.453125 4.214844 26.664062 L 4.214844 9.660156 L 6.730469 9.660156 L 6.730469 25.578125 L 15.613281 25.578125 C 15.582031 25.878906 15.566406 26.191406 15.566406 26.503906 C 15.566406 27.046875 15.613281 27.582031 15.707031 28.09375 Z M 15.710938 28.09375 " fill-opacity="1" fill-rule="nonzero"/></g><g clip-path="url(#681f6ab47e)"><path fill="#e1e1e1" d="M 25.832031 2.542969 L 25.832031 17.589844 C 25.417969 17.53125 25 17.5 24.570312 17.5 C 24.140625 17.5 23.726562 17.53125 23.316406 17.589844 L 23.316406 3.625 L 12.761719 3.625 L 12.761719 1.113281 L 24.398438 1.113281 C 25.1875 1.113281 25.828125 1.753906 25.828125 2.542969 Z M 25.832031 2.542969 " fill-opacity="1" fill-rule="nonzero"/></g><path fill="#e1e1e1" d="M 10.820312 10.890625 L 10.820312 18.316406 C 10.820312 18.804688 11.074219 19.234375 11.503906 19.46875 C 11.703125 19.578125 11.917969 19.632812 12.132812 19.632812 C 12.375 19.632812 12.621094 19.5625 12.839844 19.421875 L 18.625 15.707031 C 19.003906 15.464844 19.226562 15.050781 19.226562 14.601562 C 19.226562 14.15625 19 13.742188 18.621094 13.496094 L 12.835938 9.785156 C 12.429688 9.523438 11.925781 9.503906 11.5 9.738281 C 11.070312 9.972656 10.816406 10.402344 10.816406 10.890625 Z M 10.820312 10.890625 " fill-opacity="1" fill-rule="nonzero"/><g clip-path="url(#e9fb7e4789)"><path fill="#e1e1e1" d="M 24.574219 19.089844 C 20.484375 19.089844 17.160156 22.417969 17.160156 26.507812 C 17.160156 30.597656 20.484375 33.921875 24.574219 33.921875 C 28.660156 33.921875 31.988281 30.59375 31.988281 26.507812 C 31.988281 22.417969 28.660156 19.089844 24.574219 19.089844 Z M 22.585938 25.070312 L 23.277344 25.070312 L 23.277344 21.675781 C 23.277344 21.535156 23.390625 21.421875 23.53125 21.421875 L 25.617188 21.421875 C 25.757812 21.421875 25.871094 21.535156 25.871094 21.675781 L 25.871094 25.070312 L 26.558594 25.070312 C 26.765625 25.070312 26.886719 25.304688 26.761719 25.472656 L 24.777344 28.179688 C 24.675781 28.320312 24.46875 28.320312 24.367188 28.179688 L 22.378906 25.472656 C 22.257812 25.308594 22.375 25.070312 22.585938 25.070312 Z M 28.878906 28.179688 L 28.320312 30.953125 C 28.246094 31.320312 27.921875 31.589844 27.546875 31.589844 L 21.597656 31.589844 C 21.222656 31.589844 20.898438 31.324219 20.824219 30.953125 L 20.265625 28.179688 C 20.226562 27.972656 20.265625 27.761719 20.382812 27.585938 C 20.5 27.410156 20.679688 27.292969 20.886719 27.25 C 21.308594 27.167969 21.730469 27.441406 21.816406 27.867188 L 22.246094 30.007812 L 26.902344 30.007812 L 27.332031 27.867188 C 27.417969 27.441406 27.839844 27.164062 28.261719 27.25 C 28.46875 27.292969 28.644531 27.410156 28.761719 27.585938 C 28.878906 27.761719 28.921875 27.972656 28.878906 28.179688 Z M 28.878906 28.179688 " fill-opacity="1" fill-rule="nonzero"/></g></svg>